<?xml version="1.0" encoding="UTF-8"?>
<!DOCTYPE svg PUBLIC "-//W3C//DTD SVG 1.1//EN" "http://www.w3.org/Graphics/SVG/1.1/DTD/svg11.dtd">
<svg xmlns="http://www.w3.org/2000/svg" version="1.1" width="512px" height="512px" style="shape-rendering:geometricPrecision; text-rendering:geometricPrecision; image-rendering:optimizeQuality; fill-rule:evenodd; clip-rule:evenodd" xmlns:xlink="http://www.w3.org/1999/xlink">
<g><path style="opacity:1" fill="#e33a37" d="M 232.5,0.5 C 232.5,0.166667 232.5,-0.166667 232.5,-0.5C 247.833,-0.5 263.167,-0.5 278.5,-0.5C 339.264,5.63501 391.431,29.9683 435,72.5C 435.667,73.8333 435.667,75.1667 435,76.5C 413.833,97.6667 392.667,118.833 371.5,140C 369.365,140.635 367.365,140.301 365.5,139C 360.283,133.916 354.949,129.083 349.5,124.5C 351.144,125.366 352.811,125.866 354.5,126C 370.667,109.833 386.833,93.6667 403,77.5C 403.667,75.5 403.667,73.5 403,71.5C 355.396,26.1197 298.563,2.45304 232.5,0.5 Z"/></g>
<g><path style="opacity:1" fill="#f34336" d="M 232.5,0.5 C 298.563,2.45304 355.396,26.1197 403,71.5C 403.667,73.5 403.667,75.5 403,77.5C 386.833,93.6667 370.667,109.833 354.5,126C 352.811,125.866 351.144,125.366 349.5,124.5C 318.444,103.26 284.111,93.5932 246.5,95.5C 187.852,89.4355 139.019,108.436 100,152.5C 95.9429,157.558 92.2762,162.892 89,168.5C 88.1841,169.823 87.0174,170.489 85.5,170.5C 67.4622,157.488 49.4622,144.488 31.5,131.5C 70.963,61.5905 130.296,18.7571 209.5,3C 217.109,1.5904 224.776,0.757065 232.5,0.5 Z"/></g>
<g><path style="opacity:1" fill="#e43a36" d="M 246.5,95.5 C 183.688,101.045 138.021,131.711 109.5,187.5C 101.659,182.413 93.9921,177.08 86.5,171.5C 85.8333,171.5 85.5,171.167 85.5,170.5C 87.0174,170.489 88.1841,169.823 89,168.5C 92.2762,162.892 95.9429,157.558 100,152.5C 139.019,108.436 187.852,89.4355 246.5,95.5 Z"/></g>
<g><path style="opacity:1" fill="#fdc00d" d="M 31.5,131.5 C 49.4622,144.488 67.4622,157.488 85.5,170.5C 85.5,171.167 85.8333,171.5 86.5,171.5C 61.5265,214.964 56.6932,260.631 72,308.5C 75.0223,316.407 78.5223,324.074 82.5,331.5C 81.8333,331.5 81.5,331.833 81.5,332.5C 63.1478,345.34 44.4811,357.674 25.5,369.5C 11.3702,340.635 2.70351,310.302 -0.5,278.5C -0.5,263.167 -0.5,247.833 -0.5,232.5C 2.59834,203.448 10.0983,175.448 22,148.5C 24.6874,142.448 27.8541,136.781 31.5,131.5 Z"/></g>
<g><path style="opacity:1" fill="#feb302" d="M 86.5,171.5 C 93.9921,177.08 101.659,182.413 109.5,187.5C 91.2432,229.283 89.9099,271.617 105.5,314.5C 105.586,315.496 105.252,316.329 104.5,317C 97.0135,321.663 89.6802,326.496 82.5,331.5C 78.5223,324.074 75.0223,316.407 72,308.5C 56.6932,260.631 61.5265,214.964 86.5,171.5 Z"/></g>
<g><path style="opacity:0.992" fill="#2196f2" d="M 478.5,207.5 C 489.229,284.601 471.229,353.934 424.5,415.5C 424.167,415.5 423.833,415.5 423.5,415.5C 404.167,401.167 384.833,386.833 365.5,372.5C 385.394,353.554 399.727,330.888 408.5,304.5C 358.17,303.667 307.837,303.167 257.5,303C 257,302.5 256.5,302 256,301.5C 255.333,270.833 255.333,240.167 256,209.5C 256.5,209 257,208.5 257.5,208C 331.166,207.5 404.833,207.333 478.5,207.5 Z"/></g>
<g><path style="opacity:1" fill="#1e88e5" d="M 478.5,207.5 C 488.839,207.334 499.172,207.5 509.5,208C 510.044,208.717 510.711,209.217 511.5,209.5C 511.5,232.5 511.5,255.5 511.5,278.5C 506.83,325.009 490.997,367.342 464,405.5C 457.86,414.13 451.026,422.13 443.5,429.5C 437.167,424.833 430.833,420.167 424.5,415.5C 471.229,353.934 489.229,284.601 478.5,207.5 Z"/></g>
<g><path style="opacity:1" fill="#43a049" d="M 105.5,314.5 C 132.793,375.343 179.793,409.009 246.5,415.5C 174.642,421.072 119.642,393.405 81.5,332.5C 81.5,331.833 81.8333,331.5 82.5,331.5C 89.6802,326.496 97.0135,321.663 104.5,317C 105.252,316.329 105.586,315.496 105.5,314.5 Z"/></g>
<g><path style="opacity:1" fill="#4cae50" d="M 81.5,332.5 C 119.642,393.405 174.642,421.072 246.5,415.5C 292.2,417.602 331.867,403.269 365.5,372.5C 384.833,386.833 404.167,401.167 423.5,415.5C 387.063,461.417 340.063,491.251 282.5,505C 266.069,509.11 249.402,510.943 232.5,510.5C 181.411,506.372 136.078,488.372 96.5,456.5C 95.0892,454.086 93.0892,452.419 90.5,451.5C 89.0892,449.086 87.0892,447.419 84.5,446.5C 83.5,446.167 82.8333,445.5 82.5,444.5C 77.8333,439.167 72.8333,434.167 67.5,429.5C 63.4564,426.457 60.1231,422.791 57.5,418.5C 56.8645,416.205 55.5311,414.539 53.5,413.5C 42.2268,400.194 32.8935,385.528 25.5,369.5C 44.4811,357.674 63.1478,345.34 81.5,332.5 Z"/></g>
<g><path style="opacity:0.82" fill="#40abb5" d="M 53.5,413.5 C 55.5311,414.539 56.8645,416.205 57.5,418.5C 55.457,417.421 54.1237,415.754 53.5,413.5 Z"/></g>
<g><path style="opacity:1" fill="#43a04a" d="M 423.5,415.5 C 423.833,415.5 424.167,415.5 424.5,415.5C 430.833,420.167 437.167,424.833 443.5,429.5C 398.856,477.322 343.856,504.655 278.5,511.5C 263.167,511.5 247.833,511.5 232.5,511.5C 232.5,511.167 232.5,510.833 232.5,510.5C 249.402,510.943 266.069,509.11 282.5,505C 340.063,491.251 387.063,461.417 423.5,415.5 Z"/></g>
<g><path style="opacity:0.78" fill="#38a7cc" d="M 67.5,429.5 C 72.8333,434.167 77.8333,439.167 82.5,444.5C 76.5,440.5 71.5,435.5 67.5,429.5 Z"/></g>
<g><path style="opacity:0.98" fill="#3da0b2" d="M 84.5,446.5 C 87.0892,447.419 89.0892,449.086 90.5,451.5C 87.9108,450.581 85.9108,448.914 84.5,446.5 Z"/></g>
<g><path style="opacity:0.918" fill="#3fa6af" d="M 90.5,451.5 C 93.0892,452.419 95.0892,454.086 96.5,456.5C 93.9108,455.581 91.9108,453.914 90.5,451.5 Z"/></g>
</svg>
