<svg width="35" height="35" viewBox="0 0 35 35" fill="none" xmlns="http://www.w3.org/2000/svg">
<path d="M26.4198 18.3699C27.2898 18.7199 27.8297 19.7499 27.6297 20.6599L27.2197 22.5199C26.5097 25.7199 23.9997 27.9999 20.3797 27.9999H15.6197C11.9997 27.9999 9.48974 25.7199 8.77974 22.5199L8.36974 20.6599C8.16974 19.7499 8.70973 18.7199 9.57973 18.3699L10.9997 17.7999L16.5098 15.5899C17.4698 15.2099 18.5297 15.2099 19.4897 15.5899L24.9997 17.7999L26.4198 18.3699Z" stroke="white" stroke-width="1.5" stroke-linecap="round" stroke-linejoin="round"/>
<path d="M18 28V16" stroke="white" stroke-width="1.5" stroke-linecap="round" stroke-linejoin="round"/>
<path d="M25 14V17.8L19.49 15.59C18.53 15.21 17.47 15.21 16.51 15.59L11 17.8V14C11 12.35 12.35 11 14 11H22C23.65 11 25 12.35 25 14Z" stroke="white" stroke-width="1.5" stroke-linecap="round" stroke-linejoin="round"/>
<path d="M20.5 11H15.5V9C15.5 8.45 15.95 8 16.5 8H19.5C20.05 8 20.5 8.45 20.5 9V11Z" stroke="white" stroke-width="1.5" stroke-linecap="round" stroke-linejoin="round"/>
<circle cx="17.5" cy="17.5" r="17.5" fill="#D9D9D9" fill-opacity="0.07"/>
</svg>
