<svg width="35" height="35" viewBox="0 0 35 35" fill="none" xmlns="http://www.w3.org/2000/svg">
<path d="M29.0002 23.91C29.0202 24.66 28.8202 25.37 28.4602 25.98C28.2602 26.34 27.9902 26.6701 27.6902 26.9401C27.0002 27.5801 26.0902 27.9701 25.0802 28.0001C23.6202 28.0301 22.3302 27.2801 21.6202 26.1301C21.2402 25.5401 21.0102 24.8301 21.0002 24.0801C20.9702 22.8201 21.5302 21.6801 22.4302 20.9301C23.1102 20.3701 23.9702 20.0201 24.9102 20.0001C27.1202 19.9501 28.9502 21.7 29.0002 23.91Z" stroke="white" stroke-width="1.5" stroke-miterlimit="10" stroke-linecap="round" stroke-linejoin="round"/>
<path d="M23.4404 24.03L24.4504 24.99L26.5404 22.97" stroke="white" stroke-width="1.5" stroke-linecap="round" stroke-linejoin="round"/>
<path d="M9.16992 13.4399L17.9999 18.5499L26.7699 13.4699" stroke="white" stroke-width="1.5" stroke-linecap="round" stroke-linejoin="round"/>
<path d="M18 27.61V18.54" stroke="white" stroke-width="1.5" stroke-linecap="round" stroke-linejoin="round"/>
<path d="M27.6101 15.17V20.83C27.6101 20.88 27.6101 20.92 27.6001 20.97C26.9001 20.36 26.0001 20 25.0001 20C24.0601 20 23.1901 20.33 22.5001 20.88C21.5801 21.61 21.0001 22.74 21.0001 24C21.0001 24.75 21.2101 25.46 21.5801 26.06C21.6701 26.22 21.7801 26.37 21.9001 26.51L20.0701 27.52C18.9301 28.16 17.0701 28.16 15.9301 27.52L10.5901 24.56C9.38012 23.89 8.39014 22.21 8.39014 20.83V15.17C8.39014 13.79 9.38012 12.11 10.5901 11.44L15.9301 8.48C17.0701 7.84 18.9301 7.84 20.0701 8.48L25.4101 11.44C26.6201 12.11 27.6101 13.79 27.6101 15.17Z" stroke="white" stroke-width="1.5" stroke-linecap="round" stroke-linejoin="round"/>
<circle cx="17.5" cy="17.5" r="17.5" fill="#D9D9D9" fill-opacity="0.07"/>
</svg>
