<svg width="62" height="62" viewBox="0 0 62 62" fill="none" xmlns="http://www.w3.org/2000/svg">
<circle cx="31" cy="31" r="31" fill="#D9D9D9" fill-opacity="0.2"/>
<g clip-path="url(#clip0_245_679)">
<path d="M43.7793 16H18.2148C16.9902 16 16 16.9668 16 18.1621V43.832C16 45.0273 16.9902 46 18.2148 46H43.7793C45.0039 46 46 45.0273 46 43.8379V18.1621C46 16.9668 45.0039 16 43.7793 16ZM24.9004 41.5645H20.4473V27.2441H24.9004V41.5645ZM22.6738 25.293C21.2441 25.293 20.0898 24.1387 20.0898 22.7148C20.0898 21.291 21.2441 20.1367 22.6738 20.1367C24.0977 20.1367 25.252 21.291 25.252 22.7148C25.252 24.1328 24.0977 25.293 22.6738 25.293ZM41.5645 41.5645H37.1172V34.6035C37.1172 32.9453 37.0879 30.8066 34.8027 30.8066C32.4883 30.8066 32.1367 32.6172 32.1367 34.4863V41.5645H27.6953V27.2441H31.9609V29.2012H32.0195C32.6113 28.0762 34.0645 26.8867 36.2266 26.8867C40.7324 26.8867 41.5645 29.8516 41.5645 33.707V41.5645Z" fill="white"/>
</g>
<defs>
<clipPath id="clip0_245_679">
<rect width="30" height="30" fill="white" transform="translate(16 16)"/>
</clipPath>
</defs>
</svg>
