<svg width="674" height="256" viewBox="0 0 674 256" fill="none" xmlns="http://www.w3.org/2000/svg">
<mask id="mask0_447_941" style="mask-type:alpha" maskUnits="userSpaceOnUse" x="0" y="0" width="674" height="256">
<mask id="path-1-inside-1_447_941" fill="white">
<rect width="674" height="256" rx="10"/>
</mask>
<rect width="674" height="256" rx="10" fill="#1E40AF" stroke="black" stroke-width="256" mask="url(#path-1-inside-1_447_941)"/>
</mask>
<g mask="url(#mask0_447_941)">
<path d="M-38.1889 312.73L-10.7896 315.759C-3.61254 316.553 2.01404 309.711 -0.150445 302.822L-4.70547 288.326C-6.87015 281.436 -1.24245 274.594 5.9351 275.389L21.0511 277.062C28.2291 277.857 33.8569 271.014 31.6914 264.124L27.18 249.771C25.0021 242.842 30.705 235.975 37.9164 236.844L67.8064 240.447" stroke="white" stroke-width="11" stroke-miterlimit="10"/>
<path d="M-46.6376 308.768L-19.2383 311.797C-12.0612 312.591 -6.43464 305.749 -8.59913 298.86L-13.1542 284.363C-15.3188 277.474 -9.69113 270.632 -2.51359 271.427L12.604 273.1C19.7816 273.895 25.4093 267.053 23.2446 260.163L18.7375 245.819C16.5608 238.891 22.261 232.026 29.4708 232.893L59.3577 236.484" stroke="#FA8EAE" stroke-width="11" stroke-miterlimit="10"/>
<path d="M636.063 95.0604L626.175 80.1577C622.183 74.1408 625.689 66.0057 632.804 64.7753L637.579 63.9496C644.695 62.719 648.2 54.5828 644.207 48.566L641.522 44.5207C637.529 38.5035 641.035 30.3669 648.151 29.137L652.775 28.3379C659.932 27.1008 663.425 18.8867 659.35 12.8739L648.234 -3.52789" stroke="#19223F" stroke-width="11" stroke-miterlimit="10"/>
<path d="M641.786 99.4709L631.898 84.5682C627.906 78.5513 631.411 70.4162 638.527 69.1858L643.302 68.36C650.418 67.1295 653.923 58.9933 649.93 52.9765L647.244 48.9298C643.251 42.913 646.756 34.7768 653.872 33.5463L658.49 32.7477C665.645 31.5104 669.138 23.2993 665.066 17.2867L653.957 0.882598" stroke="#FEE61C" stroke-width="11" stroke-miterlimit="10"/>
<path d="M329.301 0.0476561L317.842 13.7787C313.215 19.3225 304.418 18.2855 301.207 11.8178L299.052 7.47705C295.841 1.0088 287.043 -0.0276998 282.417 5.51729L279.306 9.24538C274.68 14.7907 265.881 13.7537 262.67 7.28478L260.584 3.08194C257.355 -3.42435 248.486 -4.4262 243.887 1.19587L231.342 16.5317" stroke="#19223F" stroke-width="11" stroke-miterlimit="10"/>
<path d="M331.894 -6.69629L320.435 7.03475C315.808 12.5786 307.011 11.5416 303.8 5.07387L301.645 0.733107C298.434 -5.73514 289.636 -6.77164 285.009 -1.22666L281.898 2.50264C277.272 8.04763 268.473 7.01112 265.262 0.542879L263.179 -3.65474C259.95 -10.1591 251.083 -11.1616 246.484 -5.54255L233.934 9.78778" stroke="white" stroke-width="11" stroke-miterlimit="10"/>
<path d="M271.438 201.72C260.01 208.023 254.343 220.711 256.424 232.887C257.354 238.332 263.641 240.119 268.477 237.451L303.246 218.268C308.081 215.6 309.922 209.33 305.814 205.64C296.624 197.386 282.866 195.417 271.438 201.72Z" fill="#FEC031"/>
<path d="M427.285 220.401C414.687 216.995 401.796 222.183 394.832 232.386C391.719 236.948 394.998 242.602 400.331 244.043L438.665 254.402C443.996 255.843 449.676 252.613 449.285 247.105C448.411 234.783 439.883 223.808 427.285 220.401Z" fill="white"/>
<path d="M-4.56246 -0.279802C-15.9899 6.02269 -21.6565 18.7109 -19.576 30.8873C-18.6457 36.3319 -12.3588 38.1193 -7.52261 35.4509L27.2458 16.2676C32.0809 13.5999 33.922 7.33019 29.8137 3.64015C20.6241 -4.61386 6.86578 -6.58273 -4.56246 -0.279802Z" fill="#FEC031"/>
<path d="M670.438 148.72C659.01 155.023 653.343 167.711 655.424 179.887C656.354 185.332 662.641 187.119 667.477 184.451L702.246 165.268C707.081 162.6 708.922 156.33 704.814 152.64C695.624 144.386 681.866 142.417 670.438 148.72Z" fill="#FA8EAE"/>
</g>
</svg>
