<svg width="365" height="256" viewBox="0 0 365 256" fill="none" xmlns="http://www.w3.org/2000/svg">
<rect width="365" height="256" rx="10" fill="white" fill-opacity="0.07"/>
<path d="M291.651 128.749C290.393 96.758 277.591 67.7503 257.274 45.7566L174.282 128.749H291.651Z" fill="#FC7900"/>
<path d="M165.298 127.502L240.422 52.3786C220.686 34.1419 194.306 23 165.298 23C136.307 23 109.927 34.1581 90.1748 52.3786L165.298 127.502Z" fill="#343C6A"/>
<path d="M168.621 136.221V233C221.138 230.936 263.336 188.739 265.4 136.221H168.621Z" fill="#1814F3"/>
<path d="M161.749 134.213L98.2511 70.7148C83.207 87.0005 74 108.768 74 132.697C74 181.941 112.957 222.074 161.733 223.993V134.213H161.749Z" fill="#FA00FF"/>
<path d="M155.675 61.1591C154.827 61.1591 154.071 61.0133 153.408 60.7216C152.749 60.4261 152.228 60.0208 151.846 59.5057C151.467 58.9867 151.272 58.3883 151.26 57.7102H153.738C153.753 57.9943 153.846 58.2443 154.016 58.4602C154.19 58.6723 154.421 58.8371 154.709 58.9545C154.997 59.072 155.321 59.1307 155.681 59.1307C156.056 59.1307 156.387 59.0644 156.675 58.9318C156.963 58.7992 157.189 58.6155 157.351 58.3807C157.514 58.1458 157.596 57.875 157.596 57.5682C157.596 57.2576 157.509 56.983 157.334 56.7443C157.164 56.5019 156.918 56.3125 156.596 56.1761C156.278 56.0398 155.899 55.9716 155.459 55.9716H154.374V54.1648H155.459C155.831 54.1648 156.158 54.1004 156.442 53.9716C156.73 53.8428 156.954 53.6648 157.113 53.4375C157.272 53.2064 157.351 52.9375 157.351 52.6307C157.351 52.339 157.281 52.0833 157.141 51.8636C157.005 51.6402 156.812 51.4659 156.562 51.3409C156.315 51.2159 156.028 51.1534 155.698 51.1534C155.365 51.1534 155.06 51.214 154.783 51.3352C154.507 51.4527 154.285 51.6212 154.118 51.8409C153.952 52.0606 153.863 52.3182 153.851 52.6136H151.493C151.505 51.9432 151.696 51.3523 152.067 50.8409C152.439 50.3295 152.939 49.9299 153.567 49.642C154.2 49.3504 154.914 49.2045 155.709 49.2045C156.512 49.2045 157.215 49.3504 157.817 49.642C158.42 49.9337 158.887 50.3277 159.221 50.8239C159.558 51.3163 159.724 51.8693 159.721 52.483C159.724 53.1345 159.522 53.678 159.113 54.1136C158.707 54.5492 158.179 54.8258 157.528 54.9432V55.0341C158.384 55.1439 159.035 55.4413 159.482 55.9261C159.933 56.4072 160.156 57.0095 160.153 57.733C160.156 58.3958 159.965 58.9848 159.579 59.5C159.196 60.0152 158.668 60.4205 157.993 60.7159C157.319 61.0114 156.546 61.1591 155.675 61.1591ZM166.483 61.2557C165.506 61.2519 164.665 61.0114 163.961 60.5341C163.26 60.0568 162.72 59.3655 162.341 58.4602C161.966 57.5549 161.781 56.4659 161.785 55.1932C161.785 53.9242 161.972 52.8428 162.347 51.9489C162.726 51.0549 163.266 50.375 163.966 49.9091C164.671 49.4394 165.51 49.2045 166.483 49.2045C167.457 49.2045 168.294 49.4394 168.995 49.9091C169.699 50.3788 170.241 51.0606 170.62 51.9545C170.999 52.8447 171.186 53.9242 171.182 55.1932C171.182 56.4697 170.993 57.5606 170.614 58.4659C170.239 59.3712 169.701 60.0625 169.001 60.5398C168.3 61.017 167.461 61.2557 166.483 61.2557ZM166.483 59.2159C167.15 59.2159 167.682 58.8807 168.08 58.2102C168.478 57.5398 168.675 56.5341 168.671 55.1932C168.671 54.3106 168.58 53.5758 168.398 52.9886C168.22 52.4015 167.966 51.9602 167.637 51.6648C167.311 51.3693 166.927 51.2216 166.483 51.2216C165.821 51.2216 165.29 51.553 164.893 52.2159C164.495 52.8788 164.294 53.8712 164.29 55.1932C164.29 56.0871 164.379 56.8333 164.557 57.4318C164.739 58.0265 164.995 58.4735 165.324 58.7727C165.654 59.0682 166.04 59.2159 166.483 59.2159ZM179.306 58.8182V58.2045C179.306 57.7386 179.404 57.3106 179.601 56.9205C179.802 56.5265 180.092 56.2121 180.471 55.9773C180.853 55.7386 181.319 55.6193 181.868 55.6193C182.425 55.6193 182.893 55.7367 183.272 55.9716C183.654 56.2064 183.942 56.5208 184.135 56.9148C184.332 57.3049 184.431 57.7348 184.431 58.2045V58.8182C184.431 59.2841 184.332 59.714 184.135 60.108C183.939 60.4981 183.649 60.8106 183.266 61.0455C182.884 61.2841 182.418 61.4034 181.868 61.4034C181.312 61.4034 180.844 61.2841 180.465 61.0455C180.086 60.8106 179.798 60.4981 179.601 60.108C179.404 59.714 179.306 59.2841 179.306 58.8182ZM180.959 58.2045V58.8182C180.959 59.0871 181.024 59.3409 181.153 59.5795C181.285 59.8182 181.524 59.9375 181.868 59.9375C182.213 59.9375 182.448 59.8201 182.573 59.5852C182.702 59.3504 182.766 59.0947 182.766 58.8182V58.2045C182.766 57.928 182.706 57.6705 182.584 57.4318C182.463 57.1932 182.224 57.0739 181.868 57.0739C181.528 57.0739 181.291 57.1932 181.158 57.4318C181.026 57.6705 180.959 57.928 180.959 58.2045ZM173.334 52.1591V51.5455C173.334 51.0758 173.435 50.6458 173.635 50.2557C173.836 49.8617 174.126 49.5473 174.505 49.3125C174.887 49.0777 175.349 48.9602 175.891 48.9602C176.452 48.9602 176.921 49.0777 177.3 49.3125C177.679 49.5473 177.967 49.8617 178.164 50.2557C178.361 50.6458 178.459 51.0758 178.459 51.5455V52.1591C178.459 52.6288 178.359 53.0587 178.158 53.4489C177.961 53.839 177.671 54.1515 177.289 54.3864C176.91 54.6174 176.444 54.733 175.891 54.733C175.338 54.733 174.87 54.6155 174.488 54.3807C174.109 54.142 173.821 53.8295 173.624 53.4432C173.431 53.053 173.334 52.625 173.334 52.1591ZM174.999 51.5455V52.1591C174.999 52.4356 175.064 52.6913 175.192 52.9261C175.325 53.161 175.558 53.2784 175.891 53.2784C176.24 53.2784 176.476 53.161 176.601 52.9261C176.73 52.6913 176.795 52.4356 176.795 52.1591V51.5455C176.795 51.2689 176.734 51.0114 176.613 50.7727C176.492 50.5341 176.251 50.4148 175.891 50.4148C175.554 50.4148 175.321 50.536 175.192 50.7784C175.064 51.0208 174.999 51.2765 174.999 51.5455ZM174.084 61L182.084 49.3636H183.573L175.573 61H174.084ZM135.857 79V70.2727H141.738V71.794H137.703V73.8736H141.436V75.3949H137.703V77.4787H141.755V79H135.857ZM144.986 70.2727V79H143.171V70.2727H144.986ZM149.423 79.1278C148.75 79.1278 148.171 78.9915 147.685 78.7188C147.202 78.4432 146.83 78.054 146.568 77.5511C146.307 77.0455 146.176 76.4474 146.176 75.7571C146.176 75.0838 146.307 74.4929 146.568 73.9844C146.83 73.4759 147.198 73.0795 147.672 72.7955C148.149 72.5114 148.709 72.3693 149.351 72.3693C149.783 72.3693 150.185 72.4389 150.557 72.5781C150.932 72.7145 151.259 72.9205 151.537 73.196C151.818 73.4716 152.037 73.8182 152.193 74.2358C152.35 74.6506 152.428 75.1364 152.428 75.6932V76.1918H146.901V75.0668H150.719C150.719 74.8054 150.662 74.5739 150.548 74.3722C150.435 74.1705 150.277 74.0128 150.075 73.8991C149.877 73.7827 149.645 73.7244 149.381 73.7244C149.105 73.7244 148.861 73.7884 148.648 73.9162C148.438 74.0412 148.273 74.2102 148.154 74.4233C148.034 74.6335 147.973 74.8679 147.97 75.1264V76.196C147.97 76.5199 148.03 76.7997 148.149 77.0355C148.271 77.2713 148.443 77.4531 148.665 77.581C148.887 77.7088 149.149 77.7727 149.453 77.7727C149.655 77.7727 149.84 77.7443 150.007 77.6875C150.175 77.6307 150.318 77.5455 150.438 77.4318C150.557 77.3182 150.648 77.179 150.71 77.0142L152.389 77.125C152.304 77.5284 152.129 77.8807 151.865 78.1818C151.604 78.4801 151.266 78.7131 150.851 78.8807C150.439 79.0455 149.963 79.1278 149.423 79.1278ZM156.57 79.1278C155.899 79.1278 155.323 78.9858 154.84 78.7017C154.36 78.4148 153.99 78.017 153.732 77.5085C153.476 77 153.348 76.4148 153.348 75.7528C153.348 75.0824 153.477 74.4943 153.736 73.9886C153.997 73.4801 154.368 73.0838 154.848 72.7997C155.328 72.5128 155.899 72.3693 156.561 72.3693C157.132 72.3693 157.632 72.473 158.061 72.6804C158.49 72.8878 158.83 73.179 159.08 73.554C159.33 73.929 159.468 74.3693 159.493 74.875H157.78C157.732 74.5483 157.604 74.2855 157.396 74.0866C157.192 73.8849 156.923 73.7841 156.591 73.7841C156.31 73.7841 156.064 73.8608 155.854 74.0142C155.646 74.1648 155.485 74.3849 155.368 74.6747C155.252 74.9645 155.193 75.3153 155.193 75.7273C155.193 76.1449 155.25 76.5 155.364 76.7926C155.48 77.0852 155.644 77.3082 155.854 77.4616C156.064 77.6151 156.31 77.6918 156.591 77.6918C156.798 77.6918 156.985 77.6491 157.149 77.5639C157.317 77.4787 157.455 77.3551 157.563 77.1932C157.673 77.0284 157.746 76.831 157.78 76.6009H159.493C159.465 77.1009 159.328 77.5412 159.084 77.9219C158.843 78.2997 158.509 78.5952 158.083 78.8082C157.656 79.0213 157.152 79.1278 156.57 79.1278ZM164.137 72.4545V73.8182H160.195V72.4545H164.137ZM161.09 70.8864H162.905V76.9886C162.905 77.1562 162.931 77.2869 162.982 77.3807C163.033 77.4716 163.104 77.5355 163.195 77.5724C163.289 77.6094 163.397 77.6278 163.519 77.6278C163.604 77.6278 163.689 77.6207 163.775 77.6065C163.86 77.5895 163.925 77.5767 163.971 77.5682L164.256 78.919C164.165 78.9474 164.037 78.9801 163.873 79.017C163.708 79.0568 163.508 79.081 163.272 79.0895C162.834 79.1065 162.451 79.0483 162.121 78.9148C161.795 78.7812 161.54 78.5739 161.358 78.2926C161.177 78.0114 161.087 77.6562 161.09 77.2273V70.8864ZM165.319 79V72.4545H167.079V73.5966H167.148C167.267 73.1903 167.467 72.8835 167.748 72.6761C168.03 72.4659 168.354 72.3608 168.72 72.3608C168.811 72.3608 168.909 72.3665 169.014 72.3778C169.119 72.3892 169.211 72.4048 169.291 72.4247V74.0355C169.206 74.0099 169.088 73.9872 168.937 73.9673C168.787 73.9474 168.649 73.9375 168.524 73.9375C168.257 73.9375 168.018 73.9957 167.808 74.1122C167.601 74.2259 167.436 74.3849 167.314 74.5895C167.194 74.794 167.135 75.0298 167.135 75.2969V79H165.319ZM172.882 79.1278C172.22 79.1278 171.648 78.9872 171.165 78.706C170.685 78.4219 170.314 78.027 170.053 77.5213C169.791 77.0128 169.661 76.4233 169.661 75.7528C169.661 75.0767 169.791 74.4858 170.053 73.9801C170.314 73.4716 170.685 73.0767 171.165 72.7955C171.648 72.5114 172.22 72.3693 172.882 72.3693C173.544 72.3693 174.115 72.5114 174.595 72.7955C175.078 73.0767 175.45 73.4716 175.712 73.9801C175.973 74.4858 176.104 75.0767 176.104 75.7528C176.104 76.4233 175.973 77.0128 175.712 77.5213C175.45 78.027 175.078 78.4219 174.595 78.706C174.115 78.9872 173.544 79.1278 172.882 79.1278ZM172.891 77.7216C173.192 77.7216 173.443 77.6364 173.645 77.4659C173.847 77.2926 173.999 77.0568 174.101 76.7585C174.206 76.4602 174.259 76.1207 174.259 75.7401C174.259 75.3594 174.206 75.0199 174.101 74.7216C173.999 74.4233 173.847 74.1875 173.645 74.0142C173.443 73.8409 173.192 73.7543 172.891 73.7543C172.587 73.7543 172.331 73.8409 172.124 74.0142C171.919 74.1875 171.764 74.4233 171.659 74.7216C171.557 75.0199 171.506 75.3594 171.506 75.7401C171.506 76.1207 171.557 76.4602 171.659 76.7585C171.764 77.0568 171.919 77.2926 172.124 77.4659C172.331 77.6364 172.587 77.7216 172.891 77.7216ZM179.1 75.2159V79H177.284V72.4545H179.014V73.6094H179.091C179.236 73.2287 179.479 72.9276 179.82 72.706C180.161 72.4815 180.574 72.3693 181.06 72.3693C181.514 72.3693 181.911 72.4688 182.249 72.6676C182.587 72.8665 182.85 73.1506 183.037 73.5199C183.225 73.8864 183.318 74.3239 183.318 74.8324V79H181.503V75.1562C181.506 74.7557 181.404 74.4432 181.196 74.2188C180.989 73.9915 180.703 73.8778 180.34 73.8778C180.095 73.8778 179.879 73.9304 179.692 74.0355C179.507 74.1406 179.362 74.294 179.257 74.4957C179.155 74.6946 179.102 74.9347 179.1 75.2159ZM184.749 79V72.4545H186.564V79H184.749ZM185.661 71.6108C185.391 71.6108 185.16 71.5213 184.966 71.3423C184.776 71.1605 184.681 70.9432 184.681 70.6903C184.681 70.4403 184.776 70.2259 184.966 70.0469C185.16 69.8651 185.391 69.7741 185.661 69.7741C185.931 69.7741 186.161 69.8651 186.351 70.0469C186.545 70.2259 186.641 70.4403 186.641 70.6903C186.641 70.9432 186.545 71.1605 186.351 71.3423C186.161 71.5213 185.931 71.6108 185.661 71.6108ZM190.976 79.1278C190.306 79.1278 189.729 78.9858 189.246 78.7017C188.766 78.4148 188.396 78.017 188.138 77.5085C187.882 77 187.754 76.4148 187.754 75.7528C187.754 75.0824 187.884 74.4943 188.142 73.9886C188.404 73.4801 188.774 73.0838 189.254 72.7997C189.735 72.5128 190.306 72.3693 190.968 72.3693C191.539 72.3693 192.039 72.473 192.468 72.6804C192.896 72.8878 193.236 73.179 193.486 73.554C193.736 73.929 193.874 74.3693 193.899 74.875H192.186C192.138 74.5483 192.01 74.2855 191.803 74.0866C191.598 73.8849 191.33 73.7841 190.997 73.7841C190.716 73.7841 190.47 73.8608 190.26 74.0142C190.053 74.1648 189.891 74.3849 189.774 74.6747C189.658 74.9645 189.6 75.3153 189.6 75.7273C189.6 76.1449 189.656 76.5 189.77 76.7926C189.887 77.0852 190.05 77.3082 190.26 77.4616C190.47 77.6151 190.716 77.6918 190.997 77.6918C191.205 77.6918 191.391 77.6491 191.556 77.5639C191.723 77.4787 191.861 77.3551 191.969 77.1932C192.08 77.0284 192.152 76.831 192.186 76.6009H193.899C193.871 77.1009 193.735 77.5412 193.49 77.9219C193.249 78.2997 192.915 78.5952 192.489 78.8082C192.063 79.0213 191.558 79.1278 190.976 79.1278ZM200.508 74.321L198.846 74.4233C198.817 74.2812 198.756 74.1534 198.662 74.0398C198.569 73.9233 198.445 73.831 198.292 73.7628C198.141 73.6918 197.961 73.6562 197.751 73.6562C197.469 73.6562 197.232 73.7159 197.039 73.8352C196.846 73.9517 196.749 74.108 196.749 74.304C196.749 74.4602 196.812 74.5923 196.937 74.7003C197.062 74.8082 197.276 74.8949 197.58 74.9602L198.765 75.1989C199.401 75.3295 199.876 75.5398 200.188 75.8295C200.501 76.1193 200.657 76.5 200.657 76.9716C200.657 77.4006 200.53 77.777 200.278 78.1009C200.028 78.4247 199.684 78.6776 199.246 78.8594C198.812 79.0384 198.31 79.1278 197.742 79.1278C196.876 79.1278 196.185 78.9474 195.671 78.5866C195.16 78.223 194.86 77.7287 194.772 77.1037L196.557 77.0099C196.611 77.2741 196.742 77.4759 196.949 77.6151C197.157 77.7514 197.422 77.8196 197.746 77.8196C198.064 77.8196 198.32 77.7585 198.513 77.6364C198.709 77.5114 198.809 77.3509 198.812 77.1548C198.809 76.9901 198.739 76.8551 198.603 76.75C198.466 76.642 198.256 76.5597 197.972 76.5028L196.839 76.277C196.199 76.1491 195.724 75.9276 195.411 75.6122C195.101 75.2969 194.947 74.8949 194.947 74.4062C194.947 73.9858 195.06 73.6236 195.287 73.3196C195.518 73.0156 195.84 72.7812 196.255 72.6165C196.672 72.4517 197.161 72.3693 197.721 72.3693C198.547 72.3693 199.198 72.544 199.672 72.8935C200.15 73.2429 200.428 73.7187 200.508 74.321Z" fill="white"/>
<path d="M228.269 90.3636V102H225.808V92.6989H225.74L223.075 94.3693V92.1875L225.956 90.3636H228.269ZM235.284 102.159C234.481 102.159 233.765 102.011 233.137 101.716C232.512 101.42 232.015 101.013 231.648 100.494C231.281 99.9754 231.089 99.3807 231.074 98.7102H233.46C233.487 99.161 233.676 99.5265 234.029 99.8068C234.381 100.087 234.799 100.227 235.284 100.227C235.671 100.227 236.012 100.142 236.307 99.9716C236.606 99.7973 236.839 99.5568 237.006 99.25C237.176 98.9394 237.262 98.5833 237.262 98.1818C237.262 97.7727 237.174 97.4129 237 97.1023C236.83 96.7917 236.593 96.5492 236.29 96.375C235.987 96.2008 235.64 96.1117 235.25 96.108C234.909 96.108 234.578 96.178 234.256 96.3182C233.938 96.4583 233.69 96.6496 233.512 96.892L231.324 96.5L231.875 90.3636H238.989V92.375H233.904L233.602 95.2898H233.671C233.875 95.0019 234.184 94.7633 234.597 94.5739C235.01 94.3845 235.472 94.2898 235.983 94.2898C236.684 94.2898 237.309 94.4545 237.858 94.7841C238.407 95.1136 238.841 95.5663 239.159 96.142C239.477 96.714 239.635 97.3731 239.631 98.1193C239.635 98.9034 239.453 99.6004 239.085 100.21C238.722 100.816 238.212 101.294 237.557 101.642C236.906 101.987 236.148 102.159 235.284 102.159ZM247.716 99.8182V99.2045C247.716 98.7386 247.815 98.3106 248.012 97.9205C248.212 97.5265 248.502 97.2121 248.881 96.9773C249.263 96.7386 249.729 96.6193 250.279 96.6193C250.835 96.6193 251.303 96.7367 251.682 96.9716C252.065 97.2064 252.352 97.5208 252.546 97.9148C252.743 98.3049 252.841 98.7348 252.841 99.2045V99.8182C252.841 100.284 252.743 100.714 252.546 101.108C252.349 101.498 252.059 101.811 251.676 102.045C251.294 102.284 250.828 102.403 250.279 102.403C249.722 102.403 249.254 102.284 248.875 102.045C248.496 101.811 248.209 101.498 248.012 101.108C247.815 100.714 247.716 100.284 247.716 99.8182ZM249.37 99.2045V99.8182C249.37 100.087 249.434 100.341 249.563 100.58C249.695 100.818 249.934 100.938 250.279 100.938C250.623 100.938 250.858 100.82 250.983 100.585C251.112 100.35 251.176 100.095 251.176 99.8182V99.2045C251.176 98.928 251.116 98.6705 250.995 98.4318C250.873 98.1932 250.635 98.0739 250.279 98.0739C249.938 98.0739 249.701 98.1932 249.568 98.4318C249.436 98.6705 249.37 98.928 249.37 99.2045ZM241.745 93.1591V92.5455C241.745 92.0758 241.845 91.6458 242.046 91.2557C242.246 90.8617 242.536 90.5473 242.915 90.3125C243.298 90.0777 243.76 89.9602 244.301 89.9602C244.862 89.9602 245.332 90.0777 245.71 90.3125C246.089 90.5473 246.377 90.8617 246.574 91.2557C246.771 91.6458 246.87 92.0758 246.87 92.5455V93.1591C246.87 93.6288 246.769 94.0587 246.568 94.4489C246.371 94.839 246.082 95.1515 245.699 95.3864C245.32 95.6174 244.854 95.733 244.301 95.733C243.748 95.733 243.281 95.6155 242.898 95.3807C242.519 95.142 242.231 94.8295 242.034 94.4432C241.841 94.053 241.745 93.625 241.745 93.1591ZM243.409 92.5455V93.1591C243.409 93.4356 243.474 93.6913 243.602 93.9261C243.735 94.161 243.968 94.2784 244.301 94.2784C244.65 94.2784 244.887 94.161 245.012 93.9261C245.14 93.6913 245.205 93.4356 245.205 93.1591V92.5455C245.205 92.2689 245.144 92.0114 245.023 91.7727C244.902 91.5341 244.661 91.4148 244.301 91.4148C243.964 91.4148 243.731 91.536 243.602 91.7784C243.474 92.0208 243.409 92.2765 243.409 92.5455ZM242.495 102L250.495 90.3636H251.983L243.983 102H242.495ZM215.857 120V111.273H221.636V112.794H217.703V114.874H221.252V116.395H217.703V120H215.857ZM224.627 120.124C224.21 120.124 223.838 120.051 223.511 119.906C223.184 119.759 222.926 119.541 222.735 119.254C222.548 118.964 222.454 118.604 222.454 118.172C222.454 117.808 222.521 117.503 222.654 117.256C222.788 117.009 222.97 116.81 223.2 116.659C223.43 116.509 223.691 116.395 223.984 116.318C224.279 116.241 224.589 116.188 224.913 116.156C225.294 116.116 225.6 116.08 225.833 116.045C226.066 116.009 226.235 115.955 226.34 115.884C226.446 115.812 226.498 115.707 226.498 115.568V115.543C226.498 115.273 226.413 115.064 226.242 114.916C226.075 114.768 225.836 114.695 225.526 114.695C225.2 114.695 224.94 114.767 224.747 114.912C224.553 115.054 224.426 115.233 224.363 115.449L222.684 115.312C222.769 114.915 222.937 114.571 223.187 114.281C223.437 113.989 223.759 113.764 224.154 113.608C224.552 113.449 225.012 113.369 225.535 113.369C225.899 113.369 226.247 113.412 226.579 113.497C226.914 113.582 227.211 113.714 227.47 113.893C227.731 114.072 227.937 114.303 228.088 114.584C228.238 114.862 228.313 115.196 228.313 115.585V120H226.592V119.092H226.541C226.436 119.297 226.295 119.477 226.119 119.634C225.943 119.787 225.731 119.908 225.484 119.996C225.237 120.081 224.951 120.124 224.627 120.124ZM225.147 118.871C225.414 118.871 225.65 118.818 225.855 118.713C226.059 118.605 226.22 118.46 226.336 118.278C226.453 118.097 226.511 117.891 226.511 117.661V116.966C226.454 117.003 226.376 117.037 226.276 117.068C226.18 117.097 226.071 117.124 225.948 117.149C225.826 117.172 225.704 117.193 225.582 117.213C225.46 117.23 225.349 117.246 225.249 117.26C225.036 117.291 224.85 117.341 224.691 117.409C224.532 117.477 224.409 117.57 224.321 117.686C224.232 117.8 224.188 117.942 224.188 118.112C224.188 118.359 224.278 118.548 224.457 118.679C224.639 118.807 224.869 118.871 225.147 118.871ZM235.168 115.321L233.506 115.423C233.477 115.281 233.416 115.153 233.323 115.04C233.229 114.923 233.105 114.831 232.952 114.763C232.801 114.692 232.621 114.656 232.411 114.656C232.129 114.656 231.892 114.716 231.699 114.835C231.506 114.952 231.409 115.108 231.409 115.304C231.409 115.46 231.472 115.592 231.597 115.7C231.722 115.808 231.936 115.895 232.24 115.96L233.425 116.199C234.061 116.33 234.536 116.54 234.848 116.83C235.161 117.119 235.317 117.5 235.317 117.972C235.317 118.401 235.191 118.777 234.938 119.101C234.688 119.425 234.344 119.678 233.906 119.859C233.472 120.038 232.97 120.128 232.402 120.128C231.536 120.128 230.845 119.947 230.331 119.587C229.82 119.223 229.52 118.729 229.432 118.104L231.218 118.01C231.272 118.274 231.402 118.476 231.61 118.615C231.817 118.751 232.083 118.82 232.406 118.82C232.725 118.82 232.98 118.759 233.173 118.636C233.37 118.511 233.469 118.351 233.472 118.155C233.469 117.99 233.399 117.855 233.263 117.75C233.127 117.642 232.916 117.56 232.632 117.503L231.499 117.277C230.86 117.149 230.384 116.928 230.071 116.612C229.762 116.297 229.607 115.895 229.607 115.406C229.607 114.986 229.72 114.624 229.948 114.32C230.178 114.016 230.5 113.781 230.915 113.616C231.333 113.452 231.821 113.369 232.381 113.369C233.208 113.369 233.858 113.544 234.333 113.893C234.81 114.243 235.088 114.719 235.168 115.321ZM238.275 116.216V120H236.46V111.273H238.224V114.609H238.301C238.449 114.223 238.687 113.92 239.017 113.702C239.346 113.48 239.76 113.369 240.257 113.369C240.711 113.369 241.108 113.469 241.446 113.668C241.787 113.864 242.051 114.146 242.238 114.516C242.429 114.882 242.523 115.321 242.52 115.832V120H240.704V116.156C240.707 115.753 240.605 115.439 240.398 115.214C240.193 114.99 239.906 114.878 239.537 114.878C239.29 114.878 239.071 114.93 238.881 115.036C238.693 115.141 238.545 115.294 238.437 115.496C238.332 115.695 238.278 115.935 238.275 116.216ZM243.948 120V113.455H245.764V120H243.948ZM244.86 112.611C244.59 112.611 244.359 112.521 244.166 112.342C243.975 112.161 243.88 111.943 243.88 111.69C243.88 111.44 243.975 111.226 244.166 111.047C244.359 110.865 244.59 110.774 244.86 110.774C245.13 110.774 245.36 110.865 245.551 111.047C245.744 111.226 245.84 111.44 245.84 111.69C245.84 111.943 245.744 112.161 245.551 112.342C245.36 112.521 245.13 112.611 244.86 112.611ZM250.175 120.128C249.513 120.128 248.941 119.987 248.458 119.706C247.978 119.422 247.607 119.027 247.346 118.521C247.084 118.013 246.954 117.423 246.954 116.753C246.954 116.077 247.084 115.486 247.346 114.98C247.607 114.472 247.978 114.077 248.458 113.795C248.941 113.511 249.513 113.369 250.175 113.369C250.837 113.369 251.408 113.511 251.888 113.795C252.371 114.077 252.743 114.472 253.005 114.98C253.266 115.486 253.397 116.077 253.397 116.753C253.397 117.423 253.266 118.013 253.005 118.521C252.743 119.027 252.371 119.422 251.888 119.706C251.408 119.987 250.837 120.128 250.175 120.128ZM250.184 118.722C250.485 118.722 250.736 118.636 250.938 118.466C251.14 118.293 251.292 118.057 251.394 117.759C251.499 117.46 251.552 117.121 251.552 116.74C251.552 116.359 251.499 116.02 251.394 115.722C251.292 115.423 251.14 115.187 250.938 115.014C250.736 114.841 250.485 114.754 250.184 114.754C249.88 114.754 249.624 114.841 249.417 115.014C249.212 115.187 249.057 115.423 248.952 115.722C248.85 116.02 248.799 116.359 248.799 116.74C248.799 117.121 248.85 117.46 248.952 117.759C249.057 118.057 249.212 118.293 249.417 118.466C249.624 118.636 249.88 118.722 250.184 118.722ZM256.393 116.216V120H254.577V113.455H256.307V114.609H256.384C256.529 114.229 256.772 113.928 257.113 113.706C257.454 113.482 257.867 113.369 258.353 113.369C258.807 113.369 259.204 113.469 259.542 113.668C259.88 113.866 260.143 114.151 260.33 114.52C260.518 114.886 260.611 115.324 260.611 115.832V120H258.796V116.156C258.799 115.756 258.697 115.443 258.489 115.219C258.282 114.991 257.996 114.878 257.633 114.878C257.388 114.878 257.172 114.93 256.985 115.036C256.8 115.141 256.655 115.294 256.55 115.496C256.448 115.695 256.395 115.935 256.393 116.216Z" fill="white"/>
<path d="M193.139 167.159C192.291 167.159 191.535 167.013 190.872 166.722C190.213 166.426 189.692 166.021 189.31 165.506C188.931 164.987 188.736 164.388 188.724 163.71H191.202C191.217 163.994 191.31 164.244 191.48 164.46C191.654 164.672 191.885 164.837 192.173 164.955C192.461 165.072 192.785 165.131 193.145 165.131C193.52 165.131 193.851 165.064 194.139 164.932C194.427 164.799 194.652 164.616 194.815 164.381C194.978 164.146 195.06 163.875 195.06 163.568C195.06 163.258 194.972 162.983 194.798 162.744C194.628 162.502 194.381 162.312 194.06 162.176C193.741 162.04 193.363 161.972 192.923 161.972H191.838V160.165H192.923C193.294 160.165 193.622 160.1 193.906 159.972C194.194 159.843 194.417 159.665 194.577 159.438C194.736 159.206 194.815 158.938 194.815 158.631C194.815 158.339 194.745 158.083 194.605 157.864C194.469 157.64 194.275 157.466 194.025 157.341C193.779 157.216 193.491 157.153 193.162 157.153C192.828 157.153 192.524 157.214 192.247 157.335C191.97 157.453 191.749 157.621 191.582 157.841C191.416 158.061 191.327 158.318 191.315 158.614H188.957C188.969 157.943 189.16 157.352 189.531 156.841C189.902 156.33 190.402 155.93 191.031 155.642C191.664 155.35 192.378 155.205 193.173 155.205C193.976 155.205 194.679 155.35 195.281 155.642C195.883 155.934 196.351 156.328 196.685 156.824C197.022 157.316 197.188 157.869 197.185 158.483C197.188 159.134 196.986 159.678 196.577 160.114C196.171 160.549 195.643 160.826 194.991 160.943V161.034C195.847 161.144 196.499 161.441 196.946 161.926C197.397 162.407 197.62 163.009 197.616 163.733C197.62 164.396 197.429 164.985 197.042 165.5C196.66 166.015 196.131 166.42 195.457 166.716C194.783 167.011 194.01 167.159 193.139 167.159ZM203.635 167.159C202.832 167.159 202.116 167.011 201.487 166.716C200.862 166.42 200.366 166.013 199.998 165.494C199.631 164.975 199.44 164.381 199.425 163.71H201.811C201.837 164.161 202.027 164.527 202.379 164.807C202.731 165.087 203.15 165.227 203.635 165.227C204.021 165.227 204.362 165.142 204.658 164.972C204.957 164.797 205.19 164.557 205.356 164.25C205.527 163.939 205.612 163.583 205.612 163.182C205.612 162.773 205.525 162.413 205.351 162.102C205.18 161.792 204.944 161.549 204.64 161.375C204.337 161.201 203.991 161.112 203.601 161.108C203.26 161.108 202.928 161.178 202.606 161.318C202.288 161.458 202.04 161.65 201.862 161.892L199.675 161.5L200.226 155.364H207.339V157.375H202.254L201.953 160.29H202.021C202.226 160.002 202.534 159.763 202.947 159.574C203.36 159.384 203.822 159.29 204.334 159.29C205.034 159.29 205.659 159.455 206.209 159.784C206.758 160.114 207.192 160.566 207.51 161.142C207.828 161.714 207.985 162.373 207.981 163.119C207.985 163.903 207.803 164.6 207.436 165.21C207.072 165.816 206.563 166.294 205.908 166.642C205.256 166.987 204.498 167.159 203.635 167.159ZM216.067 164.818V164.205C216.067 163.739 216.165 163.311 216.362 162.92C216.563 162.527 216.853 162.212 217.231 161.977C217.614 161.739 218.08 161.619 218.629 161.619C219.186 161.619 219.654 161.737 220.033 161.972C220.415 162.206 220.703 162.521 220.896 162.915C221.093 163.305 221.192 163.735 221.192 164.205V164.818C221.192 165.284 221.093 165.714 220.896 166.108C220.699 166.498 220.409 166.811 220.027 167.045C219.644 167.284 219.178 167.403 218.629 167.403C218.072 167.403 217.604 167.284 217.226 167.045C216.847 166.811 216.559 166.498 216.362 166.108C216.165 165.714 216.067 165.284 216.067 164.818ZM217.72 164.205V164.818C217.72 165.087 217.784 165.341 217.913 165.58C218.046 165.818 218.284 165.938 218.629 165.938C218.974 165.938 219.209 165.82 219.334 165.585C219.462 165.35 219.527 165.095 219.527 164.818V164.205C219.527 163.928 219.466 163.67 219.345 163.432C219.224 163.193 218.985 163.074 218.629 163.074C218.288 163.074 218.051 163.193 217.919 163.432C217.786 163.67 217.72 163.928 217.72 164.205ZM210.095 158.159V157.545C210.095 157.076 210.195 156.646 210.396 156.256C210.597 155.862 210.887 155.547 211.265 155.312C211.648 155.078 212.11 154.96 212.652 154.96C213.212 154.96 213.682 155.078 214.061 155.312C214.44 155.547 214.728 155.862 214.925 156.256C215.122 156.646 215.22 157.076 215.22 157.545V158.159C215.22 158.629 215.12 159.059 214.919 159.449C214.722 159.839 214.432 160.152 214.05 160.386C213.671 160.617 213.205 160.733 212.652 160.733C212.099 160.733 211.631 160.616 211.248 160.381C210.87 160.142 210.582 159.83 210.385 159.443C210.192 159.053 210.095 158.625 210.095 158.159ZM211.76 157.545V158.159C211.76 158.436 211.824 158.691 211.953 158.926C212.086 159.161 212.319 159.278 212.652 159.278C213 159.278 213.237 159.161 213.362 158.926C213.491 158.691 213.555 158.436 213.555 158.159V157.545C213.555 157.269 213.495 157.011 213.373 156.773C213.252 156.534 213.012 156.415 212.652 156.415C212.315 156.415 212.082 156.536 211.953 156.778C211.824 157.021 211.76 157.277 211.76 157.545ZM210.845 167L218.845 155.364H220.334L212.334 167H210.845ZM193.728 180.636C193.728 181.588 193.547 182.398 193.187 183.065C192.829 183.733 192.34 184.243 191.721 184.595C191.104 184.945 190.411 185.119 189.641 185.119C188.866 185.119 188.17 184.943 187.553 184.591C186.937 184.239 186.449 183.729 186.091 183.061C185.734 182.393 185.555 181.585 185.555 180.636C185.555 179.685 185.734 178.875 186.091 178.207C186.449 177.54 186.937 177.031 187.553 176.682C188.17 176.33 188.866 176.153 189.641 176.153C190.411 176.153 191.104 176.33 191.721 176.682C192.34 177.031 192.829 177.54 193.187 178.207C193.547 178.875 193.728 179.685 193.728 180.636ZM191.857 180.636C191.857 180.02 191.765 179.5 191.58 179.077C191.398 178.653 191.141 178.332 190.809 178.114C190.476 177.895 190.087 177.786 189.641 177.786C189.195 177.786 188.806 177.895 188.474 178.114C188.141 178.332 187.883 178.653 187.698 179.077C187.516 179.5 187.425 180.02 187.425 180.636C187.425 181.253 187.516 181.773 187.698 182.196C187.883 182.619 188.141 182.94 188.474 183.159C188.806 183.378 189.195 183.487 189.641 183.487C190.087 183.487 190.476 183.378 190.809 183.159C191.141 182.94 191.398 182.619 191.58 182.196C191.765 181.773 191.857 181.253 191.857 180.636ZM198.542 178.455V179.818H194.6V178.455H198.542ZM195.495 176.886H197.311V182.989C197.311 183.156 197.336 183.287 197.387 183.381C197.438 183.472 197.509 183.536 197.6 183.572C197.694 183.609 197.802 183.628 197.924 183.628C198.009 183.628 198.095 183.621 198.18 183.607C198.265 183.589 198.33 183.577 198.376 183.568L198.661 184.919C198.571 184.947 198.443 184.98 198.278 185.017C198.113 185.057 197.913 185.081 197.677 185.089C197.24 185.107 196.856 185.048 196.526 184.915C196.2 184.781 195.946 184.574 195.764 184.293C195.582 184.011 195.492 183.656 195.495 183.227V176.886ZM201.681 181.216V185H199.865V176.273H201.629V179.609H201.706C201.854 179.223 202.093 178.92 202.422 178.702C202.752 178.48 203.165 178.369 203.662 178.369C204.117 178.369 204.513 178.469 204.851 178.668C205.192 178.864 205.456 179.146 205.644 179.516C205.834 179.882 205.928 180.321 205.925 180.832V185H204.11V181.156C204.112 180.753 204.01 180.439 203.803 180.214C203.598 179.99 203.311 179.878 202.942 179.878C202.695 179.878 202.476 179.93 202.286 180.036C202.098 180.141 201.95 180.294 201.843 180.496C201.737 180.695 201.683 180.935 201.681 181.216ZM210.336 185.128C209.663 185.128 209.084 184.991 208.598 184.719C208.115 184.443 207.743 184.054 207.481 183.551C207.22 183.045 207.089 182.447 207.089 181.757C207.089 181.084 207.22 180.493 207.481 179.984C207.743 179.476 208.111 179.08 208.585 178.795C209.062 178.511 209.622 178.369 210.264 178.369C210.696 178.369 211.098 178.439 211.47 178.578C211.845 178.714 212.172 178.92 212.45 179.196C212.731 179.472 212.95 179.818 213.106 180.236C213.263 180.651 213.341 181.136 213.341 181.693V182.192H207.814V181.067H211.632C211.632 180.805 211.575 180.574 211.461 180.372C211.348 180.17 211.19 180.013 210.988 179.899C210.79 179.783 210.558 179.724 210.294 179.724C210.018 179.724 209.774 179.788 209.561 179.916C209.351 180.041 209.186 180.21 209.067 180.423C208.947 180.634 208.886 180.868 208.883 181.126V182.196C208.883 182.52 208.943 182.8 209.062 183.036C209.185 183.271 209.356 183.453 209.578 183.581C209.8 183.709 210.062 183.773 210.366 183.773C210.568 183.773 210.753 183.744 210.92 183.688C211.088 183.631 211.231 183.545 211.351 183.432C211.47 183.318 211.561 183.179 211.623 183.014L213.302 183.125C213.217 183.528 213.042 183.881 212.778 184.182C212.517 184.48 212.179 184.713 211.764 184.881C211.352 185.045 210.876 185.128 210.336 185.128ZM214.525 185V178.455H216.285V179.597H216.354C216.473 179.19 216.673 178.884 216.954 178.676C217.236 178.466 217.56 178.361 217.926 178.361C218.017 178.361 218.115 178.366 218.22 178.378C218.325 178.389 218.417 178.405 218.497 178.425V180.036C218.412 180.01 218.294 179.987 218.143 179.967C217.993 179.947 217.855 179.938 217.73 179.938C217.463 179.938 217.224 179.996 217.014 180.112C216.807 180.226 216.642 180.385 216.52 180.589C216.4 180.794 216.341 181.03 216.341 181.297V185H214.525ZM224.882 180.321L223.22 180.423C223.191 180.281 223.13 180.153 223.036 180.04C222.943 179.923 222.819 179.831 222.666 179.763C222.515 179.692 222.335 179.656 222.124 179.656C221.843 179.656 221.606 179.716 221.413 179.835C221.22 179.952 221.123 180.108 221.123 180.304C221.123 180.46 221.186 180.592 221.311 180.7C221.436 180.808 221.65 180.895 221.954 180.96L223.139 181.199C223.775 181.33 224.249 181.54 224.562 181.83C224.874 182.119 225.031 182.5 225.031 182.972C225.031 183.401 224.904 183.777 224.651 184.101C224.401 184.425 224.058 184.678 223.62 184.859C223.186 185.038 222.684 185.128 222.116 185.128C221.249 185.128 220.559 184.947 220.045 184.587C219.534 184.223 219.234 183.729 219.146 183.104L220.931 183.01C220.985 183.274 221.116 183.476 221.323 183.615C221.531 183.751 221.796 183.82 222.12 183.82C222.438 183.82 222.694 183.759 222.887 183.636C223.083 183.511 223.183 183.351 223.186 183.155C223.183 182.99 223.113 182.855 222.977 182.75C222.84 182.642 222.63 182.56 222.346 182.503L221.213 182.277C220.573 182.149 220.098 181.928 219.785 181.612C219.475 181.297 219.321 180.895 219.321 180.406C219.321 179.986 219.434 179.624 219.661 179.32C219.892 179.016 220.214 178.781 220.629 178.616C221.046 178.452 221.535 178.369 222.095 178.369C222.921 178.369 223.572 178.544 224.046 178.893C224.524 179.243 224.802 179.719 224.882 180.321Z" fill="white"/>
<path d="M102.021 141V139.227L106.163 135.392C106.516 135.051 106.811 134.744 107.05 134.472C107.292 134.199 107.476 133.932 107.601 133.67C107.726 133.405 107.788 133.119 107.788 132.812C107.788 132.472 107.711 132.178 107.555 131.932C107.4 131.682 107.188 131.491 106.919 131.358C106.65 131.222 106.345 131.153 106.004 131.153C105.648 131.153 105.338 131.225 105.072 131.369C104.807 131.513 104.603 131.72 104.459 131.989C104.315 132.258 104.243 132.578 104.243 132.949H101.908C101.908 132.187 102.08 131.527 102.425 130.966C102.769 130.405 103.252 129.972 103.874 129.665C104.495 129.358 105.211 129.205 106.021 129.205C106.855 129.205 107.58 129.352 108.197 129.648C108.819 129.939 109.302 130.345 109.646 130.864C109.991 131.383 110.163 131.977 110.163 132.648C110.163 133.087 110.076 133.521 109.902 133.949C109.732 134.377 109.427 134.852 108.987 135.375C108.548 135.894 107.929 136.517 107.129 137.244L105.43 138.909V138.989H110.317V141H102.021ZM116.662 141.256C115.685 141.252 114.844 141.011 114.139 140.534C113.438 140.057 112.899 139.366 112.52 138.46C112.145 137.555 111.959 136.466 111.963 135.193C111.963 133.924 112.151 132.843 112.526 131.949C112.904 131.055 113.444 130.375 114.145 129.909C114.849 129.439 115.688 129.205 116.662 129.205C117.635 129.205 118.473 129.439 119.173 129.909C119.878 130.379 120.42 131.061 120.798 131.955C121.177 132.845 121.365 133.924 121.361 135.193C121.361 136.47 121.171 137.561 120.793 138.466C120.418 139.371 119.88 140.062 119.179 140.54C118.478 141.017 117.639 141.256 116.662 141.256ZM116.662 139.216C117.329 139.216 117.861 138.881 118.259 138.21C118.656 137.54 118.853 136.534 118.849 135.193C118.849 134.311 118.759 133.576 118.577 132.989C118.399 132.402 118.145 131.96 117.815 131.665C117.49 131.369 117.105 131.222 116.662 131.222C115.999 131.222 115.469 131.553 115.071 132.216C114.673 132.879 114.473 133.871 114.469 135.193C114.469 136.087 114.558 136.833 114.736 137.432C114.918 138.027 115.173 138.473 115.503 138.773C115.832 139.068 116.219 139.216 116.662 139.216ZM129.484 138.818V138.205C129.484 137.739 129.583 137.311 129.78 136.92C129.981 136.527 130.27 136.212 130.649 135.977C131.032 135.739 131.498 135.619 132.047 135.619C132.604 135.619 133.071 135.737 133.45 135.972C133.833 136.206 134.121 136.521 134.314 136.915C134.511 137.305 134.609 137.735 134.609 138.205V138.818C134.609 139.284 134.511 139.714 134.314 140.108C134.117 140.498 133.827 140.811 133.445 141.045C133.062 141.284 132.596 141.403 132.047 141.403C131.49 141.403 131.022 141.284 130.643 141.045C130.265 140.811 129.977 140.498 129.78 140.108C129.583 139.714 129.484 139.284 129.484 138.818ZM131.138 138.205V138.818C131.138 139.087 131.202 139.341 131.331 139.58C131.464 139.818 131.702 139.938 132.047 139.938C132.392 139.938 132.626 139.82 132.751 139.585C132.88 139.35 132.945 139.095 132.945 138.818V138.205C132.945 137.928 132.884 137.67 132.763 137.432C132.642 137.193 132.403 137.074 132.047 137.074C131.706 137.074 131.469 137.193 131.337 137.432C131.204 137.67 131.138 137.928 131.138 138.205ZM123.513 132.159V131.545C123.513 131.076 123.613 130.646 123.814 130.256C124.015 129.862 124.304 129.547 124.683 129.312C125.066 129.078 125.528 128.96 126.07 128.96C126.63 128.96 127.1 129.078 127.479 129.312C127.857 129.547 128.145 129.862 128.342 130.256C128.539 130.646 128.638 131.076 128.638 131.545V132.159C128.638 132.629 128.537 133.059 128.337 133.449C128.14 133.839 127.85 134.152 127.467 134.386C127.089 134.617 126.623 134.733 126.07 134.733C125.517 134.733 125.049 134.616 124.666 134.381C124.287 134.142 124 133.83 123.803 133.443C123.609 133.053 123.513 132.625 123.513 132.159ZM125.178 131.545V132.159C125.178 132.436 125.242 132.691 125.371 132.926C125.503 133.161 125.736 133.278 126.07 133.278C126.418 133.278 126.655 133.161 126.78 132.926C126.909 132.691 126.973 132.436 126.973 132.159V131.545C126.973 131.269 126.912 131.011 126.791 130.773C126.67 130.534 126.429 130.415 126.07 130.415C125.732 130.415 125.5 130.536 125.371 130.778C125.242 131.021 125.178 131.277 125.178 131.545ZM124.263 141L132.263 129.364H133.751L125.751 141H124.263ZM82.3152 159V150.273H84.1603V153.874H87.9061V150.273H89.747V159H87.9061V155.395H84.1603V159H82.3152ZM94.1916 159.128C93.5297 159.128 92.9572 158.987 92.4743 158.706C91.9941 158.422 91.6234 158.027 91.362 157.521C91.1007 157.013 90.97 156.423 90.97 155.753C90.97 155.077 91.1007 154.486 91.362 153.98C91.6234 153.472 91.9941 153.077 92.4743 152.795C92.9572 152.511 93.5297 152.369 94.1916 152.369C94.8535 152.369 95.4245 152.511 95.9047 152.795C96.3876 153.077 96.7598 153.472 97.0211 153.98C97.2825 154.486 97.4132 155.077 97.4132 155.753C97.4132 156.423 97.2825 157.013 97.0211 157.521C96.7598 158.027 96.3876 158.422 95.9047 158.706C95.4245 158.987 94.8535 159.128 94.1916 159.128ZM94.2001 157.722C94.5012 157.722 94.7527 157.636 94.9544 157.466C95.1561 157.293 95.3081 157.057 95.4103 156.759C95.5154 156.46 95.568 156.121 95.568 155.74C95.568 155.359 95.5154 155.02 95.4103 154.722C95.3081 154.423 95.1561 154.187 94.9544 154.014C94.7527 153.841 94.5012 153.754 94.2001 153.754C93.8961 153.754 93.6404 153.841 93.4331 154.014C93.2285 154.187 93.0737 154.423 92.9686 154.722C92.8663 155.02 92.8152 155.359 92.8152 155.74C92.8152 156.121 92.8663 156.46 92.9686 156.759C93.0737 157.057 93.2285 157.293 93.4331 157.466C93.6404 157.636 93.8961 157.722 94.2001 157.722ZM98.5936 159V152.455H100.324V153.609H100.4C100.537 153.226 100.764 152.923 101.082 152.702C101.4 152.48 101.781 152.369 102.224 152.369C102.673 152.369 103.055 152.482 103.371 152.706C103.686 152.928 103.896 153.229 104.001 153.609H104.069C104.203 153.234 104.444 152.935 104.794 152.71C105.146 152.483 105.562 152.369 106.042 152.369C106.653 152.369 107.149 152.564 107.53 152.953C107.913 153.339 108.105 153.888 108.105 154.598V159H106.294V154.956C106.294 154.592 106.197 154.32 106.004 154.138C105.811 153.956 105.569 153.865 105.28 153.865C104.95 153.865 104.693 153.97 104.508 154.18C104.324 154.388 104.231 154.662 104.231 155.003V159H102.471V154.918C102.471 154.597 102.379 154.341 102.194 154.151C102.013 153.96 101.773 153.865 101.474 153.865C101.273 153.865 101.091 153.916 100.929 154.018C100.77 154.118 100.643 154.259 100.55 154.44C100.456 154.619 100.409 154.83 100.409 155.071V159H98.5936ZM112.522 159.128C111.849 159.128 111.269 158.991 110.783 158.719C110.3 158.443 109.928 158.054 109.667 157.551C109.405 157.045 109.275 156.447 109.275 155.757C109.275 155.084 109.405 154.493 109.667 153.984C109.928 153.476 110.296 153.08 110.77 152.795C111.248 152.511 111.807 152.369 112.449 152.369C112.881 152.369 113.283 152.439 113.655 152.578C114.03 152.714 114.357 152.92 114.635 153.196C114.917 153.472 115.135 153.818 115.292 154.236C115.448 154.651 115.526 155.136 115.526 155.693V156.192H109.999V155.067H113.817C113.817 154.805 113.76 154.574 113.647 154.372C113.533 154.17 113.376 154.013 113.174 153.899C112.975 153.783 112.743 153.724 112.479 153.724C112.204 153.724 111.959 153.788 111.746 153.916C111.536 154.041 111.371 154.21 111.252 154.423C111.133 154.634 111.072 154.868 111.069 155.126V156.196C111.069 156.52 111.128 156.8 111.248 157.036C111.37 157.271 111.542 157.453 111.763 157.581C111.985 157.709 112.248 157.773 112.552 157.773C112.753 157.773 112.938 157.744 113.106 157.688C113.273 157.631 113.417 157.545 113.536 157.432C113.655 157.318 113.746 157.179 113.809 157.014L115.488 157.125C115.403 157.528 115.228 157.881 114.964 158.182C114.702 158.48 114.364 158.713 113.949 158.881C113.537 159.045 113.062 159.128 112.522 159.128ZM122.437 161.591C121.849 161.591 121.345 161.51 120.924 161.348C120.507 161.189 120.174 160.972 119.927 160.696C119.68 160.42 119.519 160.111 119.445 159.767L121.124 159.541C121.176 159.672 121.257 159.794 121.367 159.908C121.478 160.021 121.624 160.112 121.806 160.18C121.991 160.251 122.215 160.287 122.48 160.287C122.874 160.287 123.2 160.19 123.455 159.997C123.714 159.807 123.843 159.487 123.843 159.038V157.841H123.767C123.687 158.023 123.568 158.195 123.409 158.357C123.249 158.518 123.045 158.651 122.795 158.753C122.545 158.855 122.247 158.906 121.9 158.906C121.409 158.906 120.961 158.793 120.558 158.565C120.157 158.335 119.838 157.984 119.599 157.513C119.363 157.038 119.245 156.439 119.245 155.714C119.245 154.973 119.366 154.354 119.607 153.857C119.849 153.359 120.17 152.987 120.57 152.74C120.974 152.493 121.416 152.369 121.896 152.369C122.262 152.369 122.569 152.432 122.816 152.557C123.063 152.679 123.262 152.832 123.413 153.017C123.566 153.199 123.684 153.378 123.767 153.554H123.835V152.455H125.637V159.064C125.637 159.621 125.501 160.087 125.228 160.462C124.955 160.837 124.578 161.118 124.095 161.305C123.615 161.496 123.062 161.591 122.437 161.591ZM122.475 157.543C122.768 157.543 123.015 157.47 123.217 157.325C123.421 157.178 123.578 156.967 123.686 156.695C123.796 156.419 123.852 156.089 123.852 155.706C123.852 155.322 123.798 154.99 123.69 154.709C123.582 154.425 123.426 154.205 123.221 154.048C123.017 153.892 122.768 153.814 122.475 153.814C122.177 153.814 121.926 153.895 121.721 154.057C121.517 154.216 121.362 154.437 121.257 154.722C121.151 155.006 121.099 155.334 121.099 155.706C121.099 156.084 121.151 156.411 121.257 156.686C121.365 156.959 121.519 157.17 121.721 157.321C121.926 157.469 122.177 157.543 122.475 157.543ZM130.039 159.128C129.377 159.128 128.805 158.987 128.322 158.706C127.842 158.422 127.471 158.027 127.21 157.521C126.948 157.013 126.818 156.423 126.818 155.753C126.818 155.077 126.948 154.486 127.21 153.98C127.471 153.472 127.842 153.077 128.322 152.795C128.805 152.511 129.377 152.369 130.039 152.369C130.701 152.369 131.272 152.511 131.752 152.795C132.235 153.077 132.607 153.472 132.869 153.98C133.13 154.486 133.261 155.077 133.261 155.753C133.261 156.423 133.13 157.013 132.869 157.521C132.607 158.027 132.235 158.422 131.752 158.706C131.272 158.987 130.701 159.128 130.039 159.128ZM130.048 157.722C130.349 157.722 130.6 157.636 130.802 157.466C131.004 157.293 131.156 157.057 131.258 156.759C131.363 156.46 131.416 156.121 131.416 155.74C131.416 155.359 131.363 155.02 131.258 154.722C131.156 154.423 131.004 154.187 130.802 154.014C130.6 153.841 130.349 153.754 130.048 153.754C129.744 153.754 129.488 153.841 129.281 154.014C129.076 154.187 128.921 154.423 128.816 154.722C128.714 155.02 128.663 155.359 128.663 155.74C128.663 156.121 128.714 156.46 128.816 156.759C128.921 157.057 129.076 157.293 129.281 157.466C129.488 157.636 129.744 157.722 130.048 157.722ZM137.399 159.128C136.737 159.128 136.164 158.987 135.681 158.706C135.201 158.422 134.83 158.027 134.569 157.521C134.308 157.013 134.177 156.423 134.177 155.753C134.177 155.077 134.308 154.486 134.569 153.98C134.83 153.472 135.201 153.077 135.681 152.795C136.164 152.511 136.737 152.369 137.399 152.369C138.061 152.369 138.632 152.511 139.112 152.795C139.595 153.077 139.967 153.472 140.228 153.98C140.49 154.486 140.62 155.077 140.62 155.753C140.62 156.423 140.49 157.013 140.228 157.521C139.967 158.027 139.595 158.422 139.112 158.706C138.632 158.987 138.061 159.128 137.399 159.128ZM137.407 157.722C137.708 157.722 137.96 157.636 138.161 157.466C138.363 157.293 138.515 157.057 138.617 156.759C138.722 156.46 138.775 156.121 138.775 155.74C138.775 155.359 138.722 155.02 138.617 154.722C138.515 154.423 138.363 154.187 138.161 154.014C137.96 153.841 137.708 153.754 137.407 153.754C137.103 153.754 136.847 153.841 136.64 154.014C136.436 154.187 136.281 154.423 136.176 154.722C136.073 155.02 136.022 155.359 136.022 155.74C136.022 156.121 136.073 156.46 136.176 156.759C136.281 157.057 136.436 157.293 136.64 157.466C136.847 157.636 137.103 157.722 137.407 157.722ZM144.213 159.107C143.715 159.107 143.265 158.979 142.862 158.723C142.461 158.464 142.143 158.085 141.907 157.585C141.674 157.082 141.558 156.466 141.558 155.736C141.558 154.986 141.678 154.362 141.92 153.865C142.161 153.365 142.482 152.991 142.883 152.744C143.286 152.494 143.728 152.369 144.208 152.369C144.575 152.369 144.88 152.432 145.124 152.557C145.372 152.679 145.57 152.832 145.721 153.017C145.874 153.199 145.991 153.378 146.07 153.554H146.126V150.273H147.937V159H146.147V157.952H146.07C145.985 158.134 145.865 158.314 145.708 158.493C145.555 158.669 145.355 158.815 145.107 158.932C144.863 159.048 144.565 159.107 144.213 159.107ZM144.788 157.662C145.08 157.662 145.328 157.582 145.529 157.423C145.734 157.261 145.89 157.036 145.998 156.746C146.109 156.456 146.164 156.116 146.164 155.727C146.164 155.338 146.11 155 146.002 154.713C145.894 154.426 145.738 154.205 145.534 154.048C145.329 153.892 145.08 153.814 144.788 153.814C144.49 153.814 144.238 153.895 144.034 154.057C143.829 154.219 143.674 154.443 143.569 154.73C143.464 155.017 143.411 155.349 143.411 155.727C143.411 156.108 143.464 156.445 143.569 156.737C143.677 157.027 143.832 157.254 144.034 157.419C144.238 157.581 144.49 157.662 144.788 157.662ZM154.876 154.321L153.214 154.423C153.185 154.281 153.124 154.153 153.03 154.04C152.937 153.923 152.813 153.831 152.66 153.763C152.509 153.692 152.329 153.656 152.118 153.656C151.837 153.656 151.6 153.716 151.407 153.835C151.214 153.952 151.117 154.108 151.117 154.304C151.117 154.46 151.18 154.592 151.305 154.7C151.43 154.808 151.644 154.895 151.948 154.96L153.133 155.199C153.769 155.33 154.243 155.54 154.556 155.83C154.868 156.119 155.025 156.5 155.025 156.972C155.025 157.401 154.898 157.777 154.645 158.101C154.395 158.425 154.052 158.678 153.614 158.859C153.18 159.038 152.678 159.128 152.11 159.128C151.243 159.128 150.553 158.947 150.039 158.587C149.528 158.223 149.228 157.729 149.14 157.104L150.925 157.01C150.979 157.274 151.11 157.476 151.317 157.615C151.525 157.751 151.79 157.82 152.114 157.82C152.432 157.82 152.688 157.759 152.881 157.636C153.077 157.511 153.177 157.351 153.18 157.155C153.177 156.99 153.107 156.855 152.971 156.75C152.834 156.642 152.624 156.56 152.34 156.503L151.206 156.277C150.567 156.149 150.091 155.928 149.779 155.612C149.469 155.297 149.314 154.895 149.314 154.406C149.314 153.986 149.428 153.624 149.655 153.32C149.885 153.016 150.208 152.781 150.623 152.616C151.04 152.452 151.529 152.369 152.089 152.369C152.915 152.369 153.566 152.544 154.04 152.893C154.518 153.243 154.796 153.719 154.876 154.321Z" fill="white"/>
</svg>
