<svg width="39" height="39" viewBox="0 0 39 39" fill="none" xmlns="http://www.w3.org/2000/svg">
<rect x="0.868164" y="0.759888" width="37.5283" height="37.5283" rx="18.7642" fill="white" fill-opacity="0.07"/>
<path d="M26.1186 15.9706L22.014 11.8659C21.9323 11.7841 21.8353 11.7192 21.7285 11.675C21.6217 11.6307 21.5073 11.6079 21.3917 11.6079H14.3551C13.9663 11.6079 13.5934 11.7624 13.3185 12.0373C13.0436 12.3122 12.8892 12.6851 12.8892 13.0739V25.9742C12.8892 26.363 13.0436 26.7359 13.3185 27.0108C13.5934 27.2857 13.9663 27.4402 14.3551 27.4402H24.9099C25.2987 27.4402 25.6716 27.2857 25.9465 27.0108C26.2214 26.7359 26.3759 26.363 26.3759 25.9742V16.5921C26.3759 16.359 26.2834 16.1355 26.1186 15.9706ZM23.6639 16.0058H21.978V14.3199L23.6639 16.0058ZM14.6483 25.681V13.367H20.2189V16.8853C20.2189 17.1186 20.3116 17.3423 20.4765 17.5073C20.6415 17.6722 20.8652 17.7649 21.0985 17.7649H24.6168V25.681H14.6483ZM22.014 20.3677C22.1792 20.5329 22.272 20.757 22.272 20.9907C22.272 21.2244 22.1792 21.4485 22.014 21.6137C21.8487 21.779 21.6246 21.8718 21.3909 21.8718C21.1573 21.8718 20.9331 21.779 20.7679 21.6137L20.5121 21.3565V23.6287C20.5121 23.862 20.4194 24.0857 20.2545 24.2506C20.0895 24.4156 19.8658 24.5083 19.6325 24.5083C19.3993 24.5083 19.1755 24.4156 19.0106 24.2506C18.8456 24.0857 18.753 23.862 18.753 23.6287V21.3565L18.4957 21.6145C18.3304 21.7797 18.1063 21.8725 17.8727 21.8725C17.639 21.8725 17.4149 21.7797 17.2496 21.6145C17.0844 21.4492 16.9916 21.2251 16.9916 20.9915C16.9916 20.7578 17.0844 20.5337 17.2496 20.3684L19.0088 18.6093C19.0905 18.5273 19.1876 18.4622 19.2945 18.4178C19.4014 18.3734 19.516 18.3506 19.6318 18.3506C19.7476 18.3506 19.8622 18.3734 19.9691 18.4178C20.076 18.4622 20.1731 18.5273 20.2548 18.6093L22.014 20.3677Z" fill="#1E40AF"/>
</svg>
